#VRML V2.0 utf8
Group { children [
Transform { translation 0.00000 0.00000 0.59055 children [
 Shape { appearance Appearance { material Material { diffuseColor 0.035 0.035 0.04
 specularColor 0.2 0.2 0.2 shininess .35 } }
 geometry Box { size 4.09449 1.96850 1.18110 } } ] }
Transform { translation -1.50000 0.00000 1.57480 children [
 Shape { appearance Appearance { material Material { diffuseColor 0.78 0.52 0.08
 specularColor 0.5 0.5 0.5 shininess .35 } }
 geometry Box { size 0.25591 0.25591 3.14961 } } ] }
Transform { translation -0.50000 0.00000 1.57480 children [
 Shape { appearance Appearance { material Material { diffuseColor 0.78 0.52 0.08
 specularColor 0.5 0.5 0.5 shininess .35 } }
 geometry Box { size 0.25591 0.25591 3.14961 } } ] }
Transform { translation 0.50000 0.00000 1.57480 children [
 Shape { appearance Appearance { material Material { diffuseColor 0.78 0.52 0.08
 specularColor 0.5 0.5 0.5 shininess .35 } }
 geometry Box { size 0.25591 0.25591 3.14961 } } ] }
Transform { translation 1.50000 0.00000 1.57480 children [
 Shape { appearance Appearance { material Material { diffuseColor 0.78 0.52 0.08
 specularColor 0.5 0.5 0.5 shininess .35 } }
 geometry Box { size 0.25591 0.25591 3.14961 } } ] }
] }
