#VRML V2.0 utf8
Group { children [
Transform { translation 0.00000 0.00000 0.31496 children [
 Shape { appearance Appearance { material Material { diffuseColor 0.03 0.28 0.48
 specularColor 0.2 0.2 0.2 shininess .35 } }
 geometry Box { size 10.00000 13.50000 0.62992 } } ] }
Transform { translation 0.00000 2.36220 1.41732 children [
 Shape { appearance Appearance { material Material { diffuseColor 0.92 0.9 0.82
 specularColor 0.35 0.35 0.35 shininess .35 } }
 geometry Box { size 5.98425 5.98425 1.57480 } } ] }
Transform { translation 0.00000 -3.14961 1.02362 children [
 Shape { appearance Appearance { material Material { diffuseColor 0.62 0.66 0.68
 specularColor 0.6 0.6 0.6 shininess .35 } }
 geometry Box { size 3.93701 3.54331 0.78740 } } ] }
Transform { translation 3.14961 -5.51181 1.22047 children [
 Shape { appearance Appearance { material Material { diffuseColor 0.035 0.035 0.04
 specularColor 0.2 0.2 0.2 shininess .35 } }
 geometry Box { size 2.95276 1.96850 1.18110 } } ] }
Transform { translation 0.00000 -5.90551 1.12205 children [
 Shape { appearance Appearance { material Material { diffuseColor 0.035 0.035 0.04
 specularColor 0.2 0.2 0.2 shininess .35 } }
 geometry Box { size 8.86614 0.86614 0.98425 } } ] }
Transform { translation -4.00000 -5.90551 1.71260 children [
 Shape { appearance Appearance { material Material { diffuseColor 0.78 0.52 0.08
 specularColor 0.5 0.5 0.5 shininess .35 } }
 geometry Box { size 0.21654 0.21654 2.16535 } } ] }
Transform { translation -3.00000 -5.90551 1.71260 children [
 Shape { appearance Appearance { material Material { diffuseColor 0.78 0.52 0.08
 specularColor 0.5 0.5 0.5 shininess .35 } }
 geometry Box { size 0.21654 0.21654 2.16535 } } ] }
Transform { translation -2.00000 -5.90551 1.71260 children [
 Shape { appearance Appearance { material Material { diffuseColor 0.78 0.52 0.08
 specularColor 0.5 0.5 0.5 shininess .35 } }
 geometry Box { size 0.21654 0.21654 2.16535 } } ] }
Transform { translation -1.00000 -5.90551 1.71260 children [
 Shape { appearance Appearance { material Material { diffuseColor 0.78 0.52 0.08
 specularColor 0.5 0.5 0.5 shininess .35 } }
 geometry Box { size 0.21654 0.21654 2.16535 } } ] }
Transform { translation 0.00000 -5.90551 1.71260 children [
 Shape { appearance Appearance { material Material { diffuseColor 0.78 0.52 0.08
 specularColor 0.5 0.5 0.5 shininess .35 } }
 geometry Box { size 0.21654 0.21654 2.16535 } } ] }
Transform { translation 1.00000 -5.90551 1.71260 children [
 Shape { appearance Appearance { material Material { diffuseColor 0.78 0.52 0.08
 specularColor 0.5 0.5 0.5 shininess .35 } }
 geometry Box { size 0.21654 0.21654 2.16535 } } ] }
Transform { translation 2.00000 -5.90551 1.71260 children [
 Shape { appearance Appearance { material Material { diffuseColor 0.78 0.52 0.08
 specularColor 0.5 0.5 0.5 shininess .35 } }
 geometry Box { size 0.21654 0.21654 2.16535 } } ] }
Transform { translation 3.00000 -5.90551 1.71260 children [
 Shape { appearance Appearance { material Material { diffuseColor 0.78 0.52 0.08
 specularColor 0.5 0.5 0.5 shininess .35 } }
 geometry Box { size 0.21654 0.21654 2.16535 } } ] }
Transform { translation 4.00000 -5.90551 1.71260 children [
 Shape { appearance Appearance { material Material { diffuseColor 0.78 0.52 0.08
 specularColor 0.5 0.5 0.5 shininess .35 } }
 geometry Box { size 0.21654 0.21654 2.16535 } } ] }
] }
