#VRML V2.0 utf8
Group { children [
Transform { translation 0.00000 0.00000 0.31496 children [
 Shape { appearance Appearance { material Material { diffuseColor 0.03 0.3 0.16
 specularColor 0.2 0.2 0.2 shininess .35 } }
 geometry Box { size 9.00000 9.00000 0.62992 } } ] }
Transform { translation 0.00000 0.39370 0.86614 children [
 Shape { appearance Appearance { material Material { diffuseColor 0.035 0.035 0.04
 specularColor 0.2 0.2 0.2 shininess .35 } }
 geometry Box { size 1.96850 1.96850 0.47244 } } ] }
Transform { translation 0.00000 2.75591 1.81102 children [
 Shape { appearance Appearance { material Material { diffuseColor 0.08 0.3 0.62
 specularColor 0.2 0.2 0.2 shininess .35 } }
 geometry Box { size 3.93701 2.75591 2.36220 } } ] }
Transform { translation -2.75591 -2.95276 1.22047 children [
 Shape { appearance Appearance { material Material { diffuseColor 0.88 0.87 0.78
 specularColor 0.2 0.2 0.2 shininess .35 } }
 geometry Box { size 2.55906 1.57480 1.18110 } } ] }
Transform { translation 0.00000 -3.54331 1.12205 children [
 Shape { appearance Appearance { material Material { diffuseColor 0.035 0.035 0.04
 specularColor 0.2 0.2 0.2 shininess .35 } }
 geometry Box { size 7.86614 0.86614 0.98425 } } ] }
Transform { translation -3.50000 -3.54331 1.71260 children [
 Shape { appearance Appearance { material Material { diffuseColor 0.78 0.52 0.08
 specularColor 0.5 0.5 0.5 shininess .35 } }
 geometry Box { size 0.21654 0.21654 2.16535 } } ] }
Transform { translation -2.50000 -3.54331 1.71260 children [
 Shape { appearance Appearance { material Material { diffuseColor 0.78 0.52 0.08
 specularColor 0.5 0.5 0.5 shininess .35 } }
 geometry Box { size 0.21654 0.21654 2.16535 } } ] }
Transform { translation -1.50000 -3.54331 1.71260 children [
 Shape { appearance Appearance { material Material { diffuseColor 0.78 0.52 0.08
 specularColor 0.5 0.5 0.5 shininess .35 } }
 geometry Box { size 0.21654 0.21654 2.16535 } } ] }
Transform { translation -0.50000 -3.54331 1.71260 children [
 Shape { appearance Appearance { material Material { diffuseColor 0.78 0.52 0.08
 specularColor 0.5 0.5 0.5 shininess .35 } }
 geometry Box { size 0.21654 0.21654 2.16535 } } ] }
Transform { translation 0.50000 -3.54331 1.71260 children [
 Shape { appearance Appearance { material Material { diffuseColor 0.78 0.52 0.08
 specularColor 0.5 0.5 0.5 shininess .35 } }
 geometry Box { size 0.21654 0.21654 2.16535 } } ] }
Transform { translation 1.50000 -3.54331 1.71260 children [
 Shape { appearance Appearance { material Material { diffuseColor 0.78 0.52 0.08
 specularColor 0.5 0.5 0.5 shininess .35 } }
 geometry Box { size 0.21654 0.21654 2.16535 } } ] }
Transform { translation 2.50000 -3.54331 1.71260 children [
 Shape { appearance Appearance { material Material { diffuseColor 0.78 0.52 0.08
 specularColor 0.5 0.5 0.5 shininess .35 } }
 geometry Box { size 0.21654 0.21654 2.16535 } } ] }
Transform { translation 3.50000 -3.54331 1.71260 children [
 Shape { appearance Appearance { material Material { diffuseColor 0.78 0.52 0.08
 specularColor 0.5 0.5 0.5 shininess .35 } }
 geometry Box { size 0.21654 0.21654 2.16535 } } ] }
] }
