#VRML V2.0 utf8
Group { children [
Transform { translation 0.00000 0.00000 0.31496 children [
 Shape { appearance Appearance { material Material { diffuseColor 0.22 0.3 0.34
 specularColor 0.2 0.2 0.2 shininess .35 } }
 geometry Box { size 4.00000 4.00000 0.62992 } } ] }
Transform { translation 0.00000 0.00000 1.22047 children [
 Shape { appearance Appearance { material Material { diffuseColor 0.035 0.035 0.04
 specularColor 0.2 0.2 0.2 shininess .35 } }
 geometry Box { size 2.36220 2.36220 1.18110 } } ] }
] }
