#VRML V2.0 utf8
Group { children [
Transform { translation 0.00000 0.00000 0.31496 children [
 Shape { appearance Appearance { material Material { diffuseColor 0.2 0.3 0.34
 specularColor 0.2 0.2 0.2 shininess .35 } }
 geometry Box { size 4.00000 5.00000 0.62992 } } ] }
Transform { translation 0.00000 -1.69291 1.06299 children [
 Shape { appearance Appearance { material Material { diffuseColor 0.72 0.2 0.12
 specularColor 0.2 0.2 0.2 shininess .35 } }
 geometry Box { size 2.75591 0.94488 0.86614 } } ] }
Transform { translation -0.98425 0.00000 0.86614 children [
 Shape { appearance Appearance { material Material { diffuseColor 0.035 0.035 0.04
 specularColor 0.2 0.2 0.2 shininess .35 } }
 geometry Box { size 1.18110 0.70866 0.47244 } } ] }
Transform { translation 0.86614 0.00000 0.82677 children [
 Shape { appearance Appearance { material Material { diffuseColor 0.035 0.035 0.04
 specularColor 0.2 0.2 0.2 shininess .35 } }
 geometry Box { size 1.18110 1.18110 0.39370 } } ] }
Transform { translation 0.00000 1.57480 1.51575 children [
 Shape { appearance Appearance { material Material { diffuseColor 0.12 0.18 0.28
 specularColor 0.2 0.2 0.2 shininess .35 } }
 geometry Box { size 1.25984 1.25984 1.77165 } } ] }
] }
