#VRML V2.0 utf8
Group { children [
Transform { translation 0.00000 0.00000 0.08858 children [
 Shape { appearance Appearance { material Material { diffuseColor 0.12 0.1 0.08
 specularColor 0.2 0.2 0.2 shininess .35 } }
 geometry Box { size 0.62992 0.31496 0.17717 } } ] }
Transform { translation -0.24803 0.00000 0.09843 children [
 Shape { appearance Appearance { material Material { diffuseColor 0.62 0.66 0.68
 specularColor 0.6 0.6 0.6 shininess .35 } }
 geometry Box { size 0.13780 0.32283 0.19685 } } ] }
Transform { translation 0.24803 0.00000 0.09843 children [
 Shape { appearance Appearance { material Material { diffuseColor 0.62 0.66 0.68
 specularColor 0.6 0.6 0.6 shininess .35 } }
 geometry Box { size 0.13780 0.32283 0.19685 } } ] }
] }
