#VRML V2.0 utf8
Group { children [
Transform { translation 0.00000 0.00000 0.09843 children [
 Shape { appearance Appearance { material Material { diffuseColor 0.78 0.52 0.08
 specularColor 0.7 0.7 0.7 shininess .35 } }
 geometry Box { size 0.94488 0.94488 0.19685 } } ] }
Transform { translation 0.00000 0.00000 0.68898 children [
 Shape { appearance Appearance { material Material { diffuseColor 0.62 0.66 0.68
 specularColor 0.6 0.6 0.6 shininess .35 } }
 geometry Box { size 0.39370 0.39370 0.98425 } } ] }
] }
