<svg xmlns="http://www.w3.org/2000/svg" width="1400" height="720" viewBox="0 0 1400 720">
  <defs><linearGradient id="bg3" x2="1" y2="1"><stop stop-color="#071b24"/><stop offset="1" stop-color="#143642"/></linearGradient><style>.h{font:700 38px Arial;fill:#f4faf9}.tag{font:700 16px Arial;fill:#64d2c4;letter-spacing:2px}.k{font:600 21px Arial;fill:#e7f2f1}.v{font:700 22px Arial;fill:#fff}.p{font:17px Arial;fill:#adc4c7}.card{fill:#0c2933;stroke:#416e77;stroke-width:2}</style></defs>
  <rect width="1400" height="720" rx="36" fill="url(#bg3)"/><text x="65" y="70" class="tag">PRELIMINARY DEVELOPMENT BUDGET</text><text x="65" y="120" class="h">What the funding will support</text>
  <g transform="translate(65 175)"><rect width="390" height="150" rx="20" class="card"/><circle cx="60" cy="55" r="28" fill="#58c9bd"/><text x="110" y="55" class="k">Sensors + electronics</text><text x="110" y="95" class="v">₱15k–₱22k</text><text x="30" y="130" class="p">ESP32, instruments, interfaces</text></g>
  <g transform="translate(505 175)"><rect width="390" height="150" rx="20" class="card"/><circle cx="60" cy="55" r="28" fill="#57abc5"/><text x="110" y="55" class="k">Edge + networking</text><text x="110" y="95" class="v">₱5k–₱8k</text><text x="30" y="130" class="p">Orange Pi, storage, connectivity</text></g>
  <g transform="translate(945 175)"><rect width="390" height="150" rx="20" class="card"/><circle cx="60" cy="55" r="28" fill="#d7a45d"/><text x="110" y="55" class="k">Solar + battery</text><text x="110" y="95" class="v">₱12k–₱20k</text><text x="30" y="130" class="p">Charging and protected power</text></g>
  <g transform="translate(65 365)"><rect width="390" height="150" rx="20" class="card"/><circle cx="60" cy="55" r="28" fill="#798fc8"/><text x="110" y="55" class="k">Marine structure</text><text x="110" y="95" class="v">₱15k–₱28k</text><text x="30" y="130" class="p">Hull, enclosure, connectors</text></g>
  <g transform="translate(505 365)"><rect width="390" height="150" rx="20" class="card"/><circle cx="60" cy="55" r="28" fill="#a18bc4"/><text x="110" y="55" class="k">Mooring + safety</text><text x="110" y="95" class="v">₱7k–₱14k</text><text x="30" y="130" class="p">Anchor, protection, recovery</text></g>
  <g transform="translate(945 365)"><rect width="390" height="150" rx="20" class="card"/><circle cx="60" cy="55" r="28" fill="#c67e78"/><text x="110" y="55" class="k">Testing + field work</text><text x="110" y="95" class="v">₱18k–₱35k</text><text x="30" y="130" class="p">Calibration, trials, spares</text></g>
  <rect x="275" y="570" width="850" height="95" rx="25" fill="#173b44" stroke="#65c9c0" stroke-width="2"/><text x="700" y="610" text-anchor="middle" class="p">INDICATIVE TOTAL DEVELOPMENT REQUEST</text><text x="700" y="648" text-anchor="middle" class="v">₱72,000–₱127,000 • subject to supplier quotations</text>
</svg>
